<?xml version="1.0" standalone="no"?>
<!DOCTYPE svg PUBLIC "-//W3C//DTD SVG 20010904//EN"
 "http://www.w3.org/TR/2001/REC-SVG-20010904/DTD/svg10.dtd">
<svg version="1.0" xmlns="http://www.w3.org/2000/svg"
 width="780.000000pt" height="1280.000000pt" viewBox="0 0 780.000000 1280.000000"
 preserveAspectRatio="xMidYMid meet">
<metadata>
Created by potrace 1.15, written by Peter Selinger 2001-2017
</metadata>
<g transform="translate(0.000000,1280.000000) scale(0.100000,-0.100000)"
fill="#ffc107" stroke="none">
<path d="M4260 11777 c-38 -10 -48 -19 -65 -52 -11 -22 -26 -44 -33 -50 -7 -6
-17 -35 -22 -65 -12 -76 -21 -110 -29 -110 -3 0 -24 7 -46 15 -58 20 -155 19
-215 -4 -168 -64 -282 -269 -266 -476 16 -205 78 -370 293 -775 60 -113 92
-228 100 -361 7 -109 -8 -187 -39 -216 -34 -30 -50 -71 -42 -106 11 -54 32
-84 66 -96 24 -9 29 -14 20 -23 -7 -7 -12 -19 -12 -27 0 -9 -14 -24 -30 -33
-17 -10 -30 -25 -30 -36 0 -11 -7 -25 -16 -33 -10 -8 -14 -23 -11 -43 2 -18
-1 -36 -9 -44 -18 -18 -18 -37 1 -56 13 -13 14 -19 3 -36 -11 -19 -10 -24 10
-40 12 -10 22 -29 22 -44 0 -18 8 -30 25 -38 14 -6 25 -19 25 -29 0 -10 9 -24
20 -32 18 -13 19 -16 5 -27 -21 -18 -19 -80 6 -115 93 -137 124 -306 138 -760
33 -1002 38 -2111 10 -2330 -6 -49 -27 -139 -46 -199 -31 -98 -40 -114 -83
-156 -27 -25 -53 -58 -59 -72 -10 -28 -1 -79 19 -103 8 -10 -2 -20 -46 -45
-142 -80 -233 -216 -284 -421 -26 -105 -32 -150 -37 -294 -6 -196 20 -853 41
-1020 8 -60 17 -184 20 -275 7 -172 38 -690 56 -915 5 -71 10 -166 10 -210 0
-265 81 -921 125 -1005 17 -33 41 -39 49 -12 19 63 28 383 22 757 -4 226 -9
586 -11 800 -3 215 -10 516 -16 670 -17 443 -17 782 0 830 34 96 41 108 57 94
28 -23 63 -105 74 -171 11 -70 24 -491 40 -1273 19 -916 50 -1425 101 -1630
24 -92 32 -106 55 -83 12 11 18 48 25 134 10 144 15 1126 10 2109 -2 499 0
742 8 793 12 78 43 152 64 152 7 0 23 -21 36 -47 32 -66 39 -236 46 -1198 10
-1252 21 -1617 60 -1837 15 -89 39 -126 59 -91 21 37 35 153 36 283 0 74 5
239 10 365 5 127 14 412 20 635 32 1321 46 1651 74 1758 30 111 68 124 107 37
29 -66 31 -132 20 -585 -27 -1097 -31 -1303 -32 -1730 -1 -378 1 -477 16 -585
27 -210 57 -247 99 -127 15 42 37 298 56 642 6 107 15 269 20 360 5 91 12 215
15 275 3 61 16 259 30 440 48 657 68 1114 69 1585 1 272 -2 338 -16 402 -39
176 -151 319 -312 401 -42 22 -44 23 -31 47 23 41 0 115 -46 149 -33 24 -79
109 -103 191 -9 30 -28 140 -41 244 -32 246 -45 781 -39 1659 6 913 18 1065
96 1235 22 48 49 96 59 108 26 28 35 88 19 120 -11 19 -11 27 -2 36 7 7 12 20
12 30 0 11 7 18 20 18 25 0 41 30 29 52 -7 13 -4 18 12 23 18 6 21 13 17 49
-3 27 0 46 8 54 20 18 17 38 -8 62 -12 11 -16 20 -10 20 21 0 14 58 -8 70 -12
6 -20 21 -20 35 0 18 -7 26 -24 31 -40 10 -38 52 3 90 29 26 35 38 39 87 4 50
0 66 -31 132 -37 78 -57 158 -57 231 0 69 34 158 151 398 125 258 190 440 220
614 23 136 23 177 4 260 -30 129 -96 212 -213 269 -64 32 -88 39 -154 42 -68
3 -83 0 -124 -23 l-46 -26 7 68 c6 64 5 69 -24 109 -17 24 -31 49 -31 57 0 8
-16 28 -35 45 -39 34 -62 37 -135 18z"/>
</g>
</svg>
