<?xml version="1.0" standalone="no"?>
<!DOCTYPE svg PUBLIC "-//W3C//DTD SVG 20010904//EN"
 "http://www.w3.org/TR/2001/REC-SVG-20010904/DTD/svg10.dtd">
<svg version="1.0" xmlns="http://www.w3.org/2000/svg"
 width="780.000000pt" height="1280.000000pt" viewBox="0 0 780.000000 1280.000000"
 preserveAspectRatio="xMidYMid meet">
<metadata>
Created by potrace 1.15, written by Peter Selinger 2001-2017
</metadata>
<g transform="translate(0.000000,1280.000000) scale(0.100000,-0.100000)"
fill="#ffc107" stroke="none">
<path d="M3694 10415 c-28 -19 -76 -115 -73 -146 1 -13 1 -34 1 -46 l-2 -22
-47 25 c-41 22 -57 25 -109 21 -111 -8 -202 -74 -259 -188 -22 -42 -28 -71
-32 -149 -10 -174 36 -335 180 -631 105 -215 121 -263 121 -359 0 -78 -5 -95
-64 -195 -38 -64 -39 -113 -5 -153 l26 -31 -36 -12 c-25 -9 -35 -19 -35 -34 0
-11 -9 -26 -21 -33 -17 -11 -18 -16 -8 -28 9 -11 9 -18 1 -26 -15 -15 -15 -61
-1 -75 7 -7 7 -13 1 -17 -14 -9 -2 -46 14 -46 10 0 13 -7 8 -24 -4 -19 -1 -26
18 -32 33 -10 48 -35 42 -70 -4 -22 3 -47 24 -90 94 -184 114 -445 108 -1399
-8 -1200 -32 -1413 -176 -1550 -64 -61 -77 -120 -35 -159 29 -27 29 -28 -63
-76 -98 -52 -225 -169 -287 -264 -137 -209 -207 -477 -206 -786 0 -236 31
-416 117 -683 24 -77 44 -143 44 -148 0 -24 116 -267 180 -379 90 -155 139
-225 243 -344 75 -86 243 -236 265 -236 5 0 46 26 93 59 101 70 243 202 284
262 17 24 55 80 86 124 72 101 193 342 255 505 59 156 127 425 154 607 51 353
3 666 -143 931 -70 125 -192 267 -292 339 -27 20 -62 48 -77 62 -24 21 -26 27
-14 40 33 36 29 65 -13 117 -107 128 -151 382 -151 864 0 458 34 1477 56 1656
27 229 48 320 94 407 33 64 41 88 37 114 -5 28 -1 38 29 67 19 18 34 36 34 40
0 3 9 15 20 26 11 11 20 29 20 39 0 11 5 23 10 26 6 3 10 17 10 30 0 13 -4 27
-10 30 -5 3 -10 17 -10 30 0 13 -5 27 -11 31 -6 3 -8 15 -6 26 4 13 -2 22 -18
30 -33 15 -40 53 -15 85 28 36 26 92 -5 134 -62 87 -79 168 -55 270 11 47 109
253 199 419 83 153 140 309 155 425 8 65 -24 223 -55 267 -66 97 -130 138
-224 145 -50 4 -68 1 -110 -21 -50 -26 -73 -21 -56 13 10 21 -6 80 -24 87 -7
3 -16 23 -20 45 -4 23 -15 45 -28 54 -27 19 -106 19 -133 0z"/>
</g>
</svg>
